<?xml version="1.0" standalone="no"?>
<!DOCTYPE svg PUBLIC "-//W3C//DTD SVG 20010904//EN"
 "http://www.w3.org/TR/2001/REC-SVG-20010904/DTD/svg10.dtd">
<svg version="1.0" xmlns="http://www.w3.org/2000/svg"
 width="656.000000pt" height="437.000000pt" viewBox="0 0 656.000000 437.000000"
 preserveAspectRatio="xMidYMid meet">

<g transform="translate(0.000000,437.000000) scale(0.100000,-0.100000)"
fill="#000000" stroke="none">
<path d="M1578 2599 c-23 -13 -23 -57 -1 -82 14 -15 17 -33 14 -85 -1 -37 -5
-70 -7 -73 -8 -13 -120 14 -138 33 -11 11 -26 18 -37 15 -24 -6 -81 60 -74 84
3 9 -2 24 -10 33 -19 19 -21 19 -46 6 -36 -20 -17 -70 26 -70 12 0 33 -13 48
-28 35 -36 35 -80 1 -138 -22 -37 -31 -44 -58 -44 -18 0 -37 -5 -42 -10 -17
-17 -41 -1 -47 29 -9 45 -59 52 -72 10 -10 -29 14 -52 45 -45 34 6 50 -9 50
-49 0 -17 5 -36 11 -42 17 -17 -7 -53 -34 -53 -39 0 -59 -22 -55 -60 2 -27 9
-37 30 -44 39 -14 72 17 65 59 -7 42 15 69 56 71 29 1 37 -5 65 -48 23 -34 31
-55 26 -72 -11 -46 45 -73 70 -33 14 22 -2 49 -32 57 -12 3 -37 27 -55 55 -32
47 -33 50 -18 76 13 24 14 33 3 63 -12 33 -11 40 8 71 32 52 77 69 147 59 l58
-9 -1 -83 c-1 -45 -3 -85 -6 -87 -2 -3 -15 -6 -29 -7 -20 -3 -23 1 -21 20 7
47 -47 72 -68 31 -9 -16 -8 -25 6 -40 10 -11 25 -17 35 -14 24 8 31 -8 19 -41
-14 -36 2 -77 36 -92 13 -7 24 -20 25 -29 0 -14 2 -13 9 5 5 12 16 22 24 22 8
0 21 9 29 21 l15 21 121 -25 c103 -21 124 -28 142 -51 36 -46 99 -31 99 24 0
14 -5 31 -12 38 -17 17 -58 15 -78 -3 -16 -14 -29 -13 -136 10 -65 14 -123 25
-127 25 -5 0 -7 7 -5 16 2 9 32 28 68 44 65 27 66 27 89 9 32 -26 67 -24 96 6
30 30 32 64 4 99 -24 31 -19 82 11 91 40 13 29 79 -12 73 -31 -5 -46 -33 -30
-59 8 -12 11 -32 7 -50 -6 -25 -12 -29 -41 -30 -19 -1 -40 -2 -46 -3 -8 -1
-12 9 -10 28 6 52 -57 89 -88 51 -12 -15 -55 -20 -82 -10 -10 4 -12 24 -10 79
3 66 6 77 28 91 59 38 3 120 -58 84z m57 -39 c0 -30 -35 -40 -55 -15 -10 12
-10 18 0 30 20 25 55 15 55 -15z m-319 -51 c10 -17 -13 -36 -27 -22 -12 12 -4
33 11 33 5 0 12 -5 16 -11z m610 -120 c10 -17 -13 -36 -27 -22 -12 12 -4 33
11 33 5 0 12 -5 16 -11z m-496 -20 c0 -24 -23 -21 -28 4 -2 10 3 17 12 17 10
0 16 -9 16 -21z m324 -25 c29 -11 12 -64 -21 -64 -21 0 -36 39 -22 56 13 16
20 17 43 8z m-93 -24 c9 0 21 -11 27 -24 9 -20 20 -25 54 -28 29 -2 42 -7 40
-16 -1 -7 -3 -25 -4 -39 -2 -21 -14 -31 -63 -55 -70 -33 -73 -33 -103 -10 -22
17 -22 22 -16 101 7 78 8 82 28 77 12 -3 28 -6 37 -6z m-473 -53 c2 -10 -3
-17 -12 -17 -18 0 -29 16 -21 31 9 14 29 6 33 -14z m702 -17 c11 -11 20 -30
20 -42 0 -53 -74 -79 -104 -36 -21 29 -20 40 5 72 24 31 52 33 79 6z m-560
-30 c11 -11 20 -27 20 -35 0 -16 -34 -55 -48 -55 -4 0 -18 7 -30 16 -28 20
-28 58 0 78 29 20 34 20 58 -4z m170 -24 c0 -20 -19 -31 -32 -18 -6 6 -7 15
-4 21 10 16 36 13 36 -3z m112 -73 c43 -39 -4 -109 -57 -85 -33 15 -43 57 -20
82 22 24 52 26 77 3z m-384 -84 c3 -28 -16 -43 -43 -33 -15 6 -21 45 -8 58 16
16 48 1 51 -25z m755 -10 c15 -24 1 -49 -27 -49 -29 0 -44 33 -25 56 15 18 38
15 52 -7z m-535 -52 c2 -10 -3 -17 -12 -17 -18 0 -29 16 -21 31 9 14 29 6 33
-14z"/>
<path d="M2240 2195 l0 -205 50 0 50 0 0 80 0 80 60 0 60 0 0 45 0 45 -60 0
-60 0 0 35 0 35 80 0 80 0 0 45 0 45 -130 0 -130 0 0 -205z"/>
<path d="M2590 2195 l0 -205 44 0 45 0 3 53 c3 47 5 52 28 55 23 3 29 -4 49
-53 l23 -55 50 0 c36 0 49 4 45 13 -3 6 -13 31 -22 55 -17 42 -17 43 4 66 19
20 21 34 21 127 0 148 -1 149 -165 149 l-125 0 0 -205z m189 101 c7 -8 11 -34
9 -58 l-3 -43 -50 0 -50 0 -3 44 c-2 24 -1 50 2 57 7 19 80 18 95 0z"/>
<path d="M2970 2195 l0 -205 130 0 130 0 0 45 0 45 -85 0 -85 0 0 35 0 35 60
0 60 0 0 45 0 45 -61 0 -60 0 3 33 3 32 83 3 82 3 0 44 0 45 -130 0 -130 0 0
-205z"/>
<path d="M3310 2195 l0 -205 130 0 130 0 0 45 0 45 -80 0 -80 0 0 35 0 35 60
0 60 0 0 45 0 45 -60 0 -60 0 0 35 0 35 80 0 80 0 0 45 0 45 -130 0 -130 0 0
-205z"/>
<path d="M3660 2195 l0 -205 125 0 125 0 0 45 0 45 -80 0 -80 0 0 160 0 160
-45 0 -45 0 0 -205z"/>
<path d="M4068 2263 c-21 -76 -47 -168 -57 -205 l-20 -68 49 0 c46 0 49 2 55
30 6 28 9 30 56 30 47 0 51 -2 60 -30 10 -27 15 -30 55 -30 29 0 44 4 44 13
-1 6 -25 98 -54 202 l-53 190 -49 3 -49 3 -37 -138z m111 -115 c1 -5 -11 -8
-25 -8 -22 0 -24 3 -19 23 4 12 9 31 12 42 5 17 8 15 19 -15 7 -19 13 -38 13
-42z"/>
<path d="M4400 2195 l0 -205 50 0 50 0 0 102 0 101 50 -101 49 -102 46 0 45 0
0 205 0 205 -45 0 -45 0 -1 -102 0 -103 -52 103 -52 102 -47 0 -48 0 0 -205z"/>
<path d="M4801 2374 c-19 -24 -21 -40 -21 -183 0 -204 -2 -201 145 -201 128 0
145 10 145 90 l0 50 -45 0 c-42 0 -45 -2 -45 -26 0 -24 -2 -25 -52 -22 l-53 3
0 110 0 110 50 0 c44 0 50 -3 53 -22 3 -20 9 -23 48 -23 l44 0 0 50 c0 80 -17
90 -144 90 -101 0 -105 -1 -125 -26z"/>
<path d="M5160 2195 l0 -205 130 0 130 0 0 45 0 44 -82 3 -83 3 -3 33 -3 32
60 0 61 0 0 45 0 44 -57 3 c-57 3 -58 3 -58 33 l0 30 83 3 82 3 0 44 0 45
-130 0 -130 0 0 -205z"/>
<path d="M1580 1901 c0 -5 -9 -13 -20 -16 -25 -8 -35 -46 -20 -74 23 -44 109
-10 93 38 -7 20 -53 65 -53 52z m30 -46 c10 -12 10 -18 0 -30 -27 -32 -71 -8
-56 30 3 8 14 15 24 15 11 0 25 -7 32 -15z"/>
</g>
</svg>
